<svg width="1050" height="594.02" xmlns="http://www.w3.org/2000/svg" xmlns:svg="http://www.w3.org/2000/svg">
 <title>posting photo</title>
 <g>
  <title>Layer 1</title>
  <ellipse id="svg_1" opacity="0.1" fill="#403798" ry="33" rx="525" cy="561.02" cx="525"/>
  <polygon id="svg_2" fill="#d0d2d5" points="497.09 549.99 318.9 547.71 319.43 543.14 328.04 467.75 484.53 467.75 496.04 543.14 496.92 548.85 497.09 549.99"/>
  <polygon id="svg_3" opacity="0.1" points="496.92 548.85 408 548.85 318.9 547.71 319.43 543.14 496.04 543.14 496.92 548.85"/>
  <rect id="svg_4" fill="#d0d2d5" height="5.71" width="236.45" y="544.28" x="289.2"/>
  <path id="svg_5" fill="#3f3d56" d="m751.24,14.939995a14.87,14.87 0 0 0 -14.8,-14.93l-660.32,0a14.87,14.87 0 0 0 -14.8,14.94l0,400.26l689.92,0l0,-400.27z"/>
  <path id="svg_6" fill="#d0d2d5" d="m61.32,411.209995l0,46.88a14.8,14.8 0 0 0 14.8,14.8l660.32,0a14.8,14.8 0 0 0 14.8,-14.8l0,-46.88l-689.92,0z"/>
  <rect id="svg_7" fill="#fff" height="359.81" width="636.23" y="25.13" x="89.88"/>
  <path id="svg_8" fill="#403798" d="m409.71,455.099995a15.43,15.43 0 0 0 12.13,-5.88l0,0a16.06,16.06 0 0 0 1.2,-1.76l-8.47,-1.45l9.15,0.07a15.44,15.44 0 0 0 0.29,-12.22l-12.27,6.36l11.32,-8.32a15.42,15.42 0 1 0 -25.47,17.26l0,0a15.43,15.43 0 0 0 12.12,5.94z"/>
  <polygon id="svg_9" opacity="0.1" points="425.13 472.89 496.22 544.28 485.31 472.89 425.13 472.89"/>
  <path id="svg_10" opacity="0.1" fill="#403798" d="m634.94,210.109995a1.48,1.48 0 0 0 0,-0.21a55.29,55.29 0 0 0 -2.66,-14.57c-0.09,-0.27 -0.17,-0.54 -0.27,-0.8a55.77,55.77 0 0 0 -21.32,-28a55.47,55.47 0 0 0 -72.69,9a78.52,78.52 0 0 0 -4.43,-15.52a248.45,248.45 0 0 1 -44,1.64a177.65,177.65 0 0 0 27.91,10.14l-0.34,1.27a178.73,178.73 0 0 1 -31.19,-11.67l-3,-1.46l3.36,0.22a249.73,249.73 0 0 0 46.82,-1.35a79.17,79.17 0 0 0 -13.8,-21.9c-25.18,-2.54 -50.17,-7.82 -73.48,-18.3l0.54,-1.19c22.7,10.2 47,15.45 71.61,18a78.63,78.63 0 0 0 -125,13.28a108.05,108.05 0 0 0 -26.84,-60.68a251.7,251.7 0 0 1 -41.45,12.56a250.58,250.58 0 0 1 -64.81,5.14a177.9,177.9 0 0 0 27.9,10.14l-0.34,1.26a179,179 0 0 1 -31.19,-11.66l-3,-1.47l3.35,0.22a248.9,248.9 0 0 0 108.62,-17.19c-1.29,-1.42 -2.63,-2.81 -4,-4.17c-43.06,0.87 -89.95,0.45 -132.4,-15a108.28,108.28 0 0 0 -51.4,92.17c0,20.32 5.58,48.27 15.3,76.31a325.56,325.56 0 0 0 15.26,36.75c3,6 6.12,11.9 9.44,17.52l0,0a198.58,198.58 0 0 0 13.16,19.71c0.86,1.13 1.73,2.24 2.6,3.32a120.36,120.36 0 0 0 16.42,17l0,0q1.82,1.52 3.67,2.9a69.49,69.49 0 0 0 10.53,6.49a48.34,48.34 0 0 0 19.81,5.38c0.55,0 1.09,0 1.64,0l0,0.23l294,0l0,-0.23l0.22,0a14.74,14.74 0 0 0 5,-0.88c10.4,-3.69 20,-18.5 27.93,-37.21c1.76,-4.15 3.44,-8.49 5,-12.95c1.41,-3.93 2.75,-8 4,-12a371.64,371.64 0 0 0 9.25,-36.12c2.8,-13.88 4.35,-26 4.35,-33.68c-0.02,-0.78 -0.02,-1.61 -0.08,-2.44z"/>
  <path id="svg_11" opacity="0.1" fill="#403798" d="m359.91,82.509995a107.89,107.89 0 0 0 -129.62,-14.61c41.54,14.88 87.39,15.43 129.62,14.61z"/>
  <path id="svg_12" opacity="0.1" fill="#4e73df" d="m600.72,324.059995l-45.37,-78.59a1.45,1.45 0 0 0 -2.51,0l-45.37,78.59a1.45,1.45 0 0 0 1.25,2.17l13.54,0a1.46,1.46 0 0 1 1.45,1.44l0,16.79a1.44,1.44 0 0 0 1.44,1.45l17.66,0a1.45,1.45 0 0 0 1.45,-1.45l0,-8.1a1.44,1.44 0 0 1 1.44,-1.45l16.79,0a1.45,1.45 0 0 1 1.45,1.45l0,8.1a1.45,1.45 0 0 0 1.45,1.45l17.61,0a1.44,1.44 0 0 0 1.37,-1a1.34,1.34 0 0 0 0.08,-0.46l0,-16.78a1.45,1.45 0 0 1 1.45,-1.44l13.53,0a1.45,1.45 0 0 0 1.29,-2.17zm-63.26,8.69a1.4,1.4 0 0 1 -1,0.43l-6.37,0a1.45,1.45 0 0 1 -1.45,-1.45a1.47,1.47 0 0 1 1.45,-1.45l6.37,0a1.45,1.45 0 0 1 1.45,1.45a1.4,1.4 0 0 1 -0.45,1.02zm41.68,0a1.4,1.4 0 0 1 -1,0.43l-6.37,0a1.45,1.45 0 0 1 -1,-2.47a1.4,1.4 0 0 1 1,-0.43l6.37,0a1.45,1.45 0 0 1 1.45,1.45a1.4,1.4 0 0 1 -0.45,1.02z"/>
  <path id="svg_13" opacity="0.1" fill="#403798" d="m320.28,323.749995l-45.37,-78.59a1.45,1.45 0 0 0 -2.5,0l-39.2,67.85a119.89,119.89 0 0 0 16.42,17l6.37,0a1.45,1.45 0 0 1 1.45,1.45a1.47,1.47 0 0 1 -1.45,1.45l-2.69,0a70.22,70.22 0 0 0 10.51,6.53l0,-3.43a1.44,1.44 0 0 1 1.45,-1.44l16.79,0a1.44,1.44 0 0 1 1.44,1.44l0,8.1a1.51,1.51 0 0 0 0.13,0.61a1.44,1.44 0 0 0 1.32,0.84l17.66,0a1.41,1.41 0 0 0 1.15,-0.58a1.44,1.44 0 0 0 0.29,-0.87l0,-16.74a1.45,1.45 0 0 1 1.45,-1.45l13.5,0a1.44,1.44 0 0 0 1.28,-2.17zm-30,6.65a1.43,1.43 0 0 1 1,-0.43l6.36,0a1.45,1.45 0 0 1 1.45,1.45a1.45,1.45 0 0 1 -1.45,1.45l-6.36,0a1.45,1.45 0 0 1 -1.45,-1.45a1.44,1.44 0 0 1 0.46,-1.02l-0.01,0zm-28.5,-29.08a1.44,1.44 0 0 1 -1.44,-1.45l0,-11a1.44,1.44 0 0 1 1.44,-1.45l23.74,0a1.45,1.45 0 0 1 1.44,1.45l0,11a1.45,1.45 0 0 1 -1.44,1.45l-23.74,0z"/>
  <path id="svg_14" opacity="0.1" fill="#403798" d="m499.63,182.579995l-56.15,0l0,-12.15a2.9,2.9 0 0 0 -2.9,-2.9l-16.49,0l0,-12.94a1.82,1.82 0 0 0 -1.83,-1.82l-21.26,0a1.83,1.83 0 0 0 -1.83,1.82l0,12.94l-19.36,0a2.9,2.9 0 0 0 -2.9,2.9l0,12.14l-53.54,0a0.58,0.58 0 0 0 -0.59,0.59l0,161.2a0.58,0.58 0 0 0 0.59,0.59l35.63,0a0.58,0.58 0 0 0 0.59,-0.59l0,-21.67a0.6,0.6 0 0 1 0.59,-0.6l15,0a0.6,0.6 0 0 1 0.59,0.6l0,21.68a0.58,0.58 0 0 0 0.59,0.59l70.32,0a0.59,0.59 0 0 0 0.59,-0.59l0,-21.68a0.59,0.59 0 0 1 0.58,-0.6l15,0a0.59,0.59 0 0 1 0.59,0.6l0,21.68a0.59,0.59 0 0 0 0.59,0.59l35.59,0a0.59,0.59 0 0 0 0.59,-0.59l0,-161.2a0.59,0.59 0 0 0 -0.58,-0.59zm-146.46,132a0.58,0.58 0 0 1 -0.59,0.59l-22,0a0.58,0.58 0 0 1 -0.59,-0.59l0,-7.5a0.59,0.59 0 0 1 0.59,-0.6l22,0a0.59,0.59 0 0 1 0.59,0.6l0,7.5zm0,-19.39a0.59,0.59 0 0 1 -0.59,0.59l-22,0a0.59,0.59 0 0 1 -0.59,-0.59l0,-7.51a0.59,0.59 0 0 1 0.59,-0.59l22,0a0.59,0.59 0 0 1 0.59,0.59l0,7.51zm0,-19.4a0.58,0.58 0 0 1 -0.59,0.59l-22,0a0.58,0.58 0 0 1 -0.59,-0.59l0,-7.5a0.58,0.58 0 0 1 0.59,-0.59l22,0a0.58,0.58 0 0 1 0.59,0.59l0,7.5zm0,-19.39a0.58,0.58 0 0 1 -0.59,0.59l-22,0a0.58,0.58 0 0 1 -0.59,-0.59l0,-7.5a0.58,0.58 0 0 1 0.59,-0.59l22,0a0.58,0.58 0 0 1 0.59,0.59l0,7.5zm0,-19.39a0.59,0.59 0 0 1 -0.59,0.59l-22,0a0.59,0.59 0 0 1 -0.58,-0.59l0,-7.51a0.59,0.59 0 0 1 0.59,-0.59l22,0a0.59,0.59 0 0 1 0.59,0.59l-0.01,7.51zm0,-19.4a0.58,0.58 0 0 1 -0.59,0.59l-22,0a0.58,0.58 0 0 1 -0.59,-0.59l0,-7.5a0.58,0.58 0 0 1 0.59,-0.59l22,0a0.58,0.58 0 0 1 0.59,0.59l0,7.5zm0,-19.39a0.58,0.58 0 0 1 -0.59,0.59l-22,0a0.58,0.58 0 0 1 -0.59,-0.59l0,-7.5a0.58,0.58 0 0 1 0.59,-0.59l22,0a0.58,0.58 0 0 1 0.59,0.59l0,7.5zm52.1,116.36a0.58,0.58 0 0 1 -0.59,0.59l-22,0a0.58,0.58 0 0 1 -0.59,-0.59l0,-7.5a0.59,0.59 0 0 1 0.59,-0.6l22,0a0.59,0.59 0 0 1 0.59,0.6l0,7.5zm0,-19.39a0.59,0.59 0 0 1 -0.59,0.59l-22,0a0.59,0.59 0 0 1 -0.59,-0.59l0,-7.51a0.59,0.59 0 0 1 0.59,-0.59l22,0a0.59,0.59 0 0 1 0.59,0.59l0,7.51zm0,-19.4a0.58,0.58 0 0 1 -0.59,0.59l-22,0a0.58,0.58 0 0 1 -0.59,-0.59l0,-7.5a0.58,0.58 0 0 1 0.59,-0.59l22,0a0.58,0.58 0 0 1 0.59,0.59l0,7.5zm0,-19.39a0.58,0.58 0 0 1 -0.59,0.59l-22,0a0.58,0.58 0 0 1 -0.59,-0.59l0,-7.5a0.58,0.58 0 0 1 0.59,-0.59l22,0a0.58,0.58 0 0 1 0.59,0.59l0,7.5zm0,-19.39a0.59,0.59 0 0 1 -0.59,0.59l-22,0a0.59,0.59 0 0 1 -0.59,-0.59l0,-7.51a0.59,0.59 0 0 1 0.59,-0.59l22,0a0.59,0.59 0 0 1 0.59,0.59l0,7.51zm0,-19.4a0.58,0.58 0 0 1 -0.59,0.59l-22,0a0.58,0.58 0 0 1 -0.59,-0.59l0,-7.5a0.58,0.58 0 0 1 0.59,-0.59l22,0a0.58,0.58 0 0 1 0.59,0.59l0,7.5zm0,-19.39a0.58,0.58 0 0 1 -0.59,0.59l-22,0a0.58,0.58 0 0 1 -0.59,-0.59l0,-7.5a0.58,0.58 0 0 1 0.59,-0.59l22,0a0.58,0.58 0 0 1 0.59,0.59l0,7.5zm35.61,116.36a0.59,0.59 0 0 1 -0.59,0.59l-22,0a0.59,0.59 0 0 1 -0.59,-0.59l0,-7.5a0.6,0.6 0 0 1 0.59,-0.6l22,0a0.6,0.6 0 0 1 0.59,0.6l0,7.5zm0,-19.39a0.6,0.6 0 0 1 -0.59,0.59l-22,0a0.6,0.6 0 0 1 -0.59,-0.59l0,-7.51a0.6,0.6 0 0 1 0.59,-0.59l22,0a0.6,0.6 0 0 1 0.59,0.59l0,7.51zm0,-19.4a0.59,0.59 0 0 1 -0.59,0.59l-22,0a0.59,0.59 0 0 1 -0.59,-0.59l0,-7.5a0.59,0.59 0 0 1 0.59,-0.59l22,0a0.59,0.59 0 0 1 0.59,0.59l0,7.5zm0,-19.39a0.59,0.59 0 0 1 -0.59,0.59l-22,0a0.59,0.59 0 0 1 -0.59,-0.59l0,-7.5a0.59,0.59 0 0 1 0.59,-0.59l22,0a0.59,0.59 0 0 1 0.59,0.59l0,7.5zm0,-19.39a0.6,0.6 0 0 1 -0.59,0.59l-22,0a0.6,0.6 0 0 1 -0.59,-0.59l0,-7.51a0.6,0.6 0 0 1 0.59,-0.59l22,0a0.6,0.6 0 0 1 0.59,0.59l0,7.51zm0,-19.4a0.59,0.59 0 0 1 -0.59,0.59l-22,0a0.59,0.59 0 0 1 -0.59,-0.59l0,-7.5a0.59,0.59 0 0 1 0.59,-0.59l22,0a0.59,0.59 0 0 1 0.59,0.59l0,7.5zm0,-19.39a0.59,0.59 0 0 1 -0.59,0.59l-22,0a0.59,0.59 0 0 1 -0.59,-0.59l0,-7.5a0.59,0.59 0 0 1 0.59,-0.59l22,0a0.59,0.59 0 0 1 0.59,0.59l0,7.5zm52.12,123.84a0.59,0.59 0 0 1 -0.59,0.59l-22,0a0.58,0.58 0 0 1 -0.59,-0.59l0,-7.5a0.59,0.59 0 0 1 0.59,-0.6l22,0a0.6,0.6 0 0 1 0.59,0.6l0,7.5zm-52.12,-143.23a0.6,0.6 0 0 1 -0.59,0.59l-22,0a0.59,0.59 0 0 1 -0.59,-0.59l0,-7.51a0.59,0.59 0 0 1 0.59,-0.59l22,0a0.6,0.6 0 0 1 0.59,0.59l0,7.51zm0,-19.4a0.59,0.59 0 0 1 -0.59,0.59l-22,0a0.58,0.58 0 0 1 -0.59,-0.59l0,-7.5a0.58,0.58 0 0 1 0.59,-0.59l22,0a0.59,0.59 0 0 1 0.59,0.59l0,7.5zm0,-19.39a0.59,0.59 0 0 1 -0.59,0.59l-22,0a0.58,0.58 0 0 1 -0.59,-0.59l0,-7.5a0.58,0.58 0 0 1 0.59,-0.59l22,0a0.59,0.59 0 0 1 0.59,0.59l0,7.5zm52.12,104.47a0.6,0.6 0 0 1 -0.59,0.59l-22,0a0.59,0.59 0 0 1 -0.59,-0.59l0,-7.51a0.59,0.59 0 0 1 0.59,-0.59l22,0a0.6,0.6 0 0 1 0.59,0.59l0,7.51zm-52.12,-123.87a0.59,0.59 0 0 1 -0.59,0.59l-22,0a0.58,0.58 0 0 1 -0.59,-0.59l0,-7.5a0.58,0.58 0 0 1 0.59,-0.59l22,0a0.59,0.59 0 0 1 0.59,0.59l0,7.5zm0,-19.39a0.59,0.59 0 0 1 -0.59,0.59l-22,0a0.58,0.58 0 0 1 -0.59,-0.59l0,-7.5a0.58,0.58 0 0 1 0.59,-0.59l22,0a0.59,0.59 0 0 1 0.59,0.59l0,7.5z"/>
  <path id="svg_15" opacity="0.1" fill="#4e73df" d="m339.7,139.879995a12.6,12.6 0 0 0 -7.33,0.8a10.79,10.79 0 0 1 -8.81,0a12.37,12.37 0 0 0 -10.36,0.2a6.33,6.33 0 0 1 -3,0.75c-4.2,0 -7.7,-4.23 -8.42,-9.81a8.11,8.11 0 0 0 2.09,-2.27c2.47,-4 6.28,-6.51 10.56,-6.51s8.06,2.51 10.52,6.44a8.1,8.1 0 0 0 7,3.83l0.11,0c3.34,-0.02 6.24,2.7 7.64,6.57z"/>
  <path id="svg_16" opacity="0.1" fill="#403798" d="m352.5,121.359995l-6.79,4.31l4.12,-7.5a6.73,6.73 0 0 0 -4.1,-1.46l-0.11,0a8.22,8.22 0 0 1 -1.41,-0.1l-2.3,1.45l1,-1.79a8.19,8.19 0 0 1 -4,-3.05l-4.12,2.61l2.6,-4.73a12.05,12.05 0 0 0 -9.22,-4.67c-4.29,0 -8.1,2.55 -10.57,6.52a7.87,7.87 0 0 1 -7,3.76l-0.23,0c-4.72,0 -8.56,5.36 -8.56,12s3.84,12 8.56,12a6.48,6.48 0 0 0 3,-0.74a12.3,12.3 0 0 1 10.36,-0.2a10.9,10.9 0 0 0 8.81,0a12.35,12.35 0 0 1 10.27,0.19a6.31,6.31 0 0 0 3,0.73c4.72,0 8.56,-5.36 8.56,-12a15.22,15.22 0 0 0 -1.87,-7.33z"/>
  <rect id="svg_17" fill="#3f3d56" rx="19.8" height="447.42" width="371.54" y="102.97" x="505.46"/>
  <rect id="svg_18" fill="#fff" height="357.15" width="336" y="148.11" x="522"/>
  <circle id="svg_19" fill="#fff" r="13.08" cy="528.8" cx="691.23"/>
  <path id="svg_20" fill="#fff" d="m691.23,135.179995a6,6 0 1 1 6,-6a6,6 0 0 1 -6,6z"/>
  <path id="svg_21" fill="#fff" d="m691.23,123.589995a5.55,5.55 0 1 1 -5.54,5.55a5.55,5.55 0 0 1 5.54,-5.55m0,-1a6.55,6.55 0 1 0 6.54,6.55a6.54,6.54 0 0 0 -6.54,-6.55z"/>
  <path id="svg_22" opacity="0.1" fill="#403798" d="m824.2,332.309995s0,-0.08 0,-0.12a32.12,32.12 0 0 0 -1.55,-8.47l-0.15,-0.46a32.51,32.51 0 0 0 -12.41,-16.25a32.23,32.23 0 0 0 -42.25,5.22a47.14,47.14 0 0 0 -2.57,-9a144.23,144.23 0 0 1 -25.59,1a102.72,102.72 0 0 0 16.22,5.78l-0.2,0.74a103.56,103.56 0 0 1 -18.13,-6.74l-1.76,-0.85l2,0.13a144.61,144.61 0 0 0 27.22,-0.78a46.08,46.08 0 0 0 -8,-12.73c-14.64,-1.48 -29.17,-4.55 -42.72,-10.64l0.31,-0.7c13.2,5.94 27.35,9 41.63,10.49a45.71,45.71 0 0 0 -72.66,7.72a62.74,62.74 0 0 0 -15.59,-35.33a147.66,147.66 0 0 1 -24.1,7.3a145.91,145.91 0 0 1 -37.68,3a102.72,102.72 0 0 0 16.22,5.89l-0.2,0.73a102.73,102.73 0 0 1 -18.13,-6.78l-1.76,-0.85l2,0.13a144.71,144.71 0 0 0 63.16,-10c-0.75,-0.83 -1.53,-1.63 -2.33,-2.42c-25,0.5 -52.29,0.26 -77,-8.73a62.93,62.93 0 0 0 -29.89,53.62c0,11.81 3.25,28.06 8.9,44.36a187.93,187.93 0 0 0 8.81,21.35c1.72,3.51 3.55,6.92 5.48,10.18l0,0a117,117 0 0 0 7.65,11.46c0.5,0.65 1,1.3 1.52,1.93a69.63,69.63 0 0 0 9.54,9.87l0,0c0.71,0.59 1.42,1.15 2.14,1.68a40.31,40.31 0 0 0 6.11,3.81a28,28 0 0 0 11.56,3.16c0.31,0 0.63,0 0.95,0l0,0.13l170.86,0l0,-0.13l0.12,0a8.76,8.76 0 0 0 2.89,-0.51c6,-2.15 11.61,-10.76 16.23,-21.64c1,-2.41 2,-4.93 2.94,-7.52c0.82,-2.29 1.59,-4.63 2.33,-7a215.07,215.07 0 0 0 5.38,-21a110.27,110.27 0 0 0 2.53,-19.58c0,-0.48 -0.01,-0.96 -0.03,-1.45z"/>
  <path id="svg_23" opacity="0.1" fill="#403798" d="m664.31,258.549995a62.72,62.72 0 0 0 -75.31,-8.49c24.11,8.65 50.76,8.95 75.31,8.49z"/>
  <path id="svg_24" opacity="0.1" fill="#403798" d="m804.3,398.009995l-26.37,-45.69a0.84,0.84 0 0 0 -1.46,0l-26.38,45.69a0.84,0.84 0 0 0 0.73,1.26l7.87,0a0.85,0.85 0 0 1 0.84,0.84l0,9.76a0.85,0.85 0 0 0 0.84,0.84l10.27,0a0.85,0.85 0 0 0 0.84,-0.84l0,-4.71a0.83,0.83 0 0 1 0.84,-0.84l9.76,0a0.84,0.84 0 0 1 0.84,0.84l0,4.71a0.85,0.85 0 0 0 0.84,0.84l10.24,0a0.84,0.84 0 0 0 0.8,-0.57a0.86,0.86 0 0 0 0,-0.27l0,-9.76a0.84,0.84 0 0 1 0.84,-0.84l7.87,0a0.84,0.84 0 0 0 0.79,-1.26zm-36.77,5a0.86,0.86 0 0 1 -0.6,0.25l-3.7,0a0.85,0.85 0 0 1 -0.84,-0.84a0.81,0.81 0 0 1 0.25,-0.6a0.84,0.84 0 0 1 0.59,-0.25l3.7,0a0.85,0.85 0 0 1 0.85,0.85a0.84,0.84 0 0 1 -0.25,0.59zm24.23,0a0.86,0.86 0 0 1 -0.6,0.25l-3.7,0a0.85,0.85 0 0 1 0,-1.69l3.7,0a0.85,0.85 0 0 1 0.85,0.85a0.84,0.84 0 0 1 -0.25,0.59z"/>
  <path id="svg_25" opacity="0.1" fill="#403798" d="m641.27,398.379995l-26.37,-45.69a0.84,0.84 0 0 0 -1.46,0l-22.78,39.46a69.45,69.45 0 0 0 9.54,9.86l3.7,0a0.84,0.84 0 0 1 0.6,1.43a0.81,0.81 0 0 1 -0.6,0.25l-1.56,0a41,41 0 0 0 6.11,3.8l0,-2a0.84,0.84 0 0 1 0.84,-0.84l9.76,0a0.85,0.85 0 0 1 0.84,0.84l0,4.71a0.78,0.78 0 0 0 0.08,0.35a0.83,0.83 0 0 0 0.76,0.49l10.27,0a0.84,0.84 0 0 0 0.67,-0.34a0.86,0.86 0 0 0 0.17,-0.5l0,-9.76a0.84,0.84 0 0 1 0.84,-0.84l7.87,0a0.84,0.84 0 0 0 0.72,-1.22zm-17.43,3.86a0.83,0.83 0 0 1 0.59,-0.24l3.71,0a0.83,0.83 0 0 1 0.59,1.43a0.8,0.8 0 0 1 -0.59,0.25l-3.71,0a0.85,0.85 0 0 1 -0.84,-0.84a0.86,0.86 0 0 1 0.25,-0.6zm-16.57,-16.9a0.84,0.84 0 0 1 -0.84,-0.85l0,-6.39a0.84,0.84 0 0 1 0.84,-0.84l13.8,0a0.85,0.85 0 0 1 0.84,0.84l0,6.39a0.85,0.85 0 0 1 -0.84,0.85l-13.8,0z"/>
  <path id="svg_26" opacity="0.1" fill="#403798" d="m745.53,316.309995l-32.64,0l0,-7.05a1.69,1.69 0 0 0 -1.69,-1.69l-9.58,0l0,-7.56a1.06,1.06 0 0 0 -1.06,-1.06l-12.35,0a1.05,1.05 0 0 0 -1.06,1.06l0,7.52l-11.27,0a1.69,1.69 0 0 0 -1.69,1.69l0,7.05l-31.12,0a0.35,0.35 0 0 0 -0.35,0.34l0,93.72a0.35,0.35 0 0 0 0.35,0.34l20.68,0a0.34,0.34 0 0 0 0.34,-0.34l0,-12.57a0.35,0.35 0 0 1 0.35,-0.34l8.73,0a0.35,0.35 0 0 1 0.35,0.34l0,12.61a0.34,0.34 0 0 0 0.34,0.34l40.88,0a0.34,0.34 0 0 0 0.34,-0.34l0,-12.61a0.34,0.34 0 0 1 0.34,-0.34l8.74,0a0.34,0.34 0 0 1 0.34,0.34l0,12.61a0.35,0.35 0 0 0 0.35,0.34l20.68,0a0.34,0.34 0 0 0 0.34,-0.34l0,-93.72a0.34,0.34 0 0 0 -0.34,-0.34zm-85.14,76.7a0.34,0.34 0 0 1 -0.34,0.34l-12.78,0a0.34,0.34 0 0 1 -0.34,-0.34l0,-4.37a0.34,0.34 0 0 1 0.34,-0.34l12.78,0a0.34,0.34 0 0 1 0.34,0.34l0,4.37zm0,-15.65a0.34,0.34 0 0 1 -0.34,0.34l-12.78,0a0.34,0.34 0 0 1 -0.34,-0.34l0,-4.36a0.34,0.34 0 0 1 0.34,-0.34l12.78,0a0.34,0.34 0 0 1 0.34,0.34l0,4.36zm0,-11.27a0.34,0.34 0 0 1 -0.34,0.34l-12.78,0a0.34,0.34 0 0 1 -0.34,-0.34l0,-4.37a0.34,0.34 0 0 1 0.34,-0.34l12.78,0a0.34,0.34 0 0 1 0.34,0.34l0,4.37zm0,-11.28a0.35,0.35 0 0 1 -0.34,0.35l-12.78,0a0.35,0.35 0 0 1 -0.34,-0.35l0,-4.36a0.34,0.34 0 0 1 0.34,-0.34l12.78,0a0.34,0.34 0 0 1 0.34,0.34l0,4.36zm0,-11.27a0.34,0.34 0 0 1 -0.34,0.34l-12.78,0a0.34,0.34 0 0 1 -0.34,-0.34l0,-4.37a0.34,0.34 0 0 1 0.34,-0.34l12.78,0a0.34,0.34 0 0 1 0.34,0.34l0,4.37zm0,-11.27a0.34,0.34 0 0 1 -0.34,0.34l-12.78,0a0.34,0.34 0 0 1 -0.34,-0.34l0,-4.37a0.34,0.34 0 0 1 0.34,-0.34l12.78,0a0.34,0.34 0 0 1 0.34,0.34l0,4.37zm0,-11.28a0.34,0.34 0 0 1 -0.34,0.34l-12.78,0a0.34,0.34 0 0 1 -0.34,-0.34l0,0.02a0.34,0.34 0 0 1 0.34,-0.34l12.78,0a0.34,0.34 0 0 1 0.34,0.34l0,-0.02zm30.29,72a0.34,0.34 0 0 1 -0.34,0.34l-12.78,0a0.34,0.34 0 0 1 -0.34,-0.34l0,-4.37a0.34,0.34 0 0 1 0.34,-0.34l12.78,0a0.34,0.34 0 0 1 0.34,0.34l0,4.37zm-30.29,-83.28a0.34,0.34 0 0 1 -0.34,0.34l17.51,0a0.34,0.34 0 0 1 -0.34,-0.34l0,-4.36a0.34,0.34 0 0 1 0.34,-0.34l12.78,0a0.34,0.34 0 0 1 0.34,0.34l-30.29,4.36zm0,-11.27a0.34,0.34 0 0 1 -0.34,0.34l17.51,0a0.34,0.34 0 0 1 -0.34,-0.34l0,-4.37a0.34,0.34 0 0 1 0.34,-0.34l12.78,0a0.34,0.34 0 0 1 0.34,0.34l-30.29,4.37zm0,-11.28a0.35,0.35 0 0 1 -0.34,0.35l17.51,0a0.35,0.35 0 0 1 -0.34,-0.35l0,-4.36a0.34,0.34 0 0 1 0.34,-0.34l12.78,0a0.34,0.34 0 0 1 0.34,0.34l-30.29,4.36zm0,-11.27a0.34,0.34 0 0 1 -0.34,0.34l17.51,0a0.34,0.34 0 0 1 -0.34,-0.34l0,-4.37a0.34,0.34 0 0 1 0.34,-0.34l12.78,0a0.34,0.34 0 0 1 0.34,0.34l-30.29,4.37zm0,-11.27a0.34,0.34 0 0 1 -0.34,0.34l17.51,0a0.34,0.34 0 0 1 -0.34,-0.34l0,-4.37a0.34,0.34 0 0 1 0.34,-0.34l12.78,0a0.34,0.34 0 0 1 0.34,0.34l-30.29,4.37zm0,-11.28a0.34,0.34 0 0 1 -0.34,0.34l17.51,0a0.34,0.34 0 0 1 -0.34,-0.34l0,67.67a0.34,0.34 0 0 1 0.34,-0.34l12.78,0a0.34,0.34 0 0 1 0.34,0.34l-30.29,-67.67zm20.7,72a0.34,0.34 0 0 1 -0.34,0.34l17.51,0a0.34,0.34 0 0 1 -0.34,-0.34l0,-4.37a0.34,0.34 0 0 1 0.34,-0.34l12.74,0a0.34,0.34 0 0 1 0.34,0.34l-30.25,4.37zm-20.7,-83.28a0.34,0.34 0 0 1 -0.34,0.34l38.21,0a0.34,0.34 0 0 1 -0.34,-0.34l0,-4.36a0.34,0.34 0 0 1 0.34,-0.34l12.74,0a0.34,0.34 0 0 1 0.34,0.34l-50.95,4.36zm0,-11.27a0.34,0.34 0 0 1 -0.34,0.34l38.21,0a0.34,0.34 0 0 1 -0.34,-0.34l0,-4.37a0.34,0.34 0 0 1 0.34,-0.34l12.74,0a0.34,0.34 0 0 1 0.34,0.34l-50.95,4.37zm0,-11.28a0.35,0.35 0 0 1 -0.34,0.35l38.21,0a0.35,0.35 0 0 1 -0.34,-0.35l0,-4.36a0.34,0.34 0 0 1 0.34,-0.34l12.74,0a0.34,0.34 0 0 1 0.34,0.34l-50.95,4.36zm0,-11.27a0.34,0.34 0 0 1 -0.34,0.34l38.21,0a0.34,0.34 0 0 1 -0.34,-0.34l0,-4.37a0.34,0.34 0 0 1 0.34,-0.34l12.74,0a0.34,0.34 0 0 1 0.34,0.34l-50.95,4.37zm0,-11.27a0.34,0.34 0 0 1 -0.34,0.34l38.21,0a0.34,0.34 0 0 1 -0.34,-0.34l0,-4.37a0.34,0.34 0 0 1 0.34,-0.34l12.74,0a0.34,0.34 0 0 1 0.34,0.34l-50.95,4.37zm0,-11.28a0.34,0.34 0 0 1 -0.34,0.34l38.21,0a0.34,0.34 0 0 1 -0.34,-0.34l0,135.32a0.34,0.34 0 0 1 0.34,-0.34l12.74,0a0.34,0.34 0 0 1 0.34,0.34l-50.95,-135.32zm30.33,72a0.35,0.35 0 0 1 -0.34,0.34l38.17,0a0.34,0.34 0 0 1 -0.34,-0.34l0,-4.37a0.34,0.34 0 0 1 0.34,-0.34l12.78,0a0.34,0.34 0 0 1 0.34,0.34l-50.95,4.37zm-30.33,-83.28a0.34,0.34 0 0 1 -0.34,0.34l68.5,0a0.34,0.34 0 0 1 -0.34,-0.34l0,-4.36a0.34,0.34 0 0 1 0.34,-0.34l12.78,0a0.34,0.34 0 0 1 0.34,0.34l-81.28,4.36zm0,-11.27a0.34,0.34 0 0 1 -0.34,0.34l68.5,0a0.34,0.34 0 0 1 -0.34,-0.34l0,-4.37a0.34,0.34 0 0 1 0.34,-0.34l12.78,0a0.35,0.35 0 0 1 0.34,0.34l-81.28,4.37zm0,-11.28a0.35,0.35 0 0 1 -0.34,0.35l68.5,0a0.35,0.35 0 0 1 -0.34,-0.35l0,-4.36a0.34,0.34 0 0 1 0.34,-0.34l12.78,0a0.34,0.34 0 0 1 0.34,0.34l-81.28,4.36zm0,-11.27a0.34,0.34 0 0 1 -0.34,0.34l68.5,0a0.34,0.34 0 0 1 -0.34,-0.34l0,-4.37a0.34,0.34 0 0 1 0.34,-0.34l12.78,0a0.35,0.35 0 0 1 0.34,0.34l-81.28,4.37zm0,-11.27a0.35,0.35 0 0 1 -0.34,0.34l68.5,0a0.34,0.34 0 0 1 -0.34,-0.34l0,-4.37a0.34,0.34 0 0 1 0.34,-0.34l12.78,0a0.34,0.34 0 0 1 0.34,0.34l-81.28,4.37zm0,-11.28a0.34,0.34 0 0 1 -0.34,0.34l68.5,0a0.34,0.34 0 0 1 -0.34,-0.34l0,202.97a0.34,0.34 0 0 1 0.34,-0.34l12.78,0a0.34,0.34 0 0 1 0.34,0.34l-81.28,-202.97z"/>
  <path id="svg_27" opacity="0.1" fill="#4e73df" d="m652.56,291.909995a7.39,7.39 0 0 0 -4.26,0.46a6.34,6.34 0 0 1 -2.55,0.54a6.24,6.24 0 0 1 -2.57,-0.55a7.18,7.18 0 0 0 -6,0.12a3.72,3.72 0 0 1 -1.73,0.43c-2.44,0 -4.47,-2.46 -4.89,-5.7a4.82,4.82 0 0 0 1.22,-1.32a6.86,6.86 0 0 1 12.25,0a4.68,4.68 0 0 0 4,2.23l0.07,0c1.96,-0.04 3.64,1.51 4.46,3.79z"/>
  <path id="svg_28" opacity="0.1" fill="#403798" d="m660,281.719995l-4,2.51l2.4,-4.36a3.92,3.92 0 0 0 -2.39,-0.85l-0.01,0a5.55,5.55 0 0 1 -0.82,-0.06l-1.34,0.84l0.58,-1a4.72,4.72 0 0 1 -2.34,-1.77l-2.4,1.51l1.52,-2.75a7,7 0 0 0 -5.37,-2.71a7.35,7.35 0 0 0 -6.14,3.79a4.6,4.6 0 0 1 -4.06,2.19l-0.13,0c-2.75,0 -5,3.11 -5,7s2.23,7 5,7a3.73,3.73 0 0 0 1.73,-0.44a7.18,7.18 0 0 1 6,-0.11a6.41,6.41 0 0 0 2.57,0.55a6.34,6.34 0 0 0 2.55,-0.54a7.19,7.19 0 0 1 6,0.11a3.64,3.64 0 0 0 1.71,0.43c2.75,0 5,-3.12 5,-7a8.86,8.86 0 0 0 -1.06,-4.34z"/>
  <rect id="svg_29" fill="#3f3d56" rx="2.29" height="44.17" width="5.36" y="269.17" x="988.64"/>
  <rect id="svg_30" fill="#3f3d56" rx="1.5" height="14.54" width="3.01" y="234.57" x="810.55"/>
  <rect id="svg_31" fill="#3f3d56" rx="1.69" height="25.31" width="3.39" y="261.19" x="810.44"/>
  <rect id="svg_32" fill="#3f3d56" rx="1.61" height="25.53" width="3.23" y="295.35" x="810.49"/>
  <rect id="svg_33" fill="#3f3d56" rx="18.54" height="364.37" width="179.29" y="186.51" x="812.25"/>
  <rect id="svg_34" fill="#e6e8ec" rx="2.54" height="5.08" width="25.04" y="197.39" x="884.6"/>
  <circle id="svg_35" fill="#e6e8ec" r="2.88" cy="199.94" cx="916.3"/>
  <path id="svg_36" fill="#fff" d="m966.22,196.009995l-20.52,0l0,2.47a11.73,11.73 0 0 1 -11.7,11.72l-65.46,0a11.73,11.73 0 0 1 -11.73,-11.73l0,-2.46l-19.25,0a14.25,14.25 0 0 0 -14.24,14.24l0,316.9a14.24,14.24 0 0 0 14.24,14.24l128.66,0a14.23,14.23 0 0 0 14.24,-14.24l0,-316.91a14.24,14.24 0 0 0 -14.24,-14.23z"/>
  <path id="svg_37" opacity="0.1" fill="#403798" d="m962.2,370.689995l0,0a14.33,14.33 0 0 0 -0.7,-3.83a1.72,1.72 0 0 0 -0.07,-0.21a14.56,14.56 0 0 0 -24.65,-5a20.46,20.46 0 0 0 -1.16,-4.07a65.66,65.66 0 0 1 -11.55,0.43a47.79,47.79 0 0 0 7.32,2.66l-0.09,0.33a46.82,46.82 0 0 1 -8.18,-3.06l-0.79,-0.39l0.88,0.06a65.38,65.38 0 0 0 12.28,-0.35a20.79,20.79 0 0 0 -3.62,-5.75a61.91,61.91 0 0 1 -19.27,-4.79l0.14,-0.32a60.89,60.89 0 0 0 18.78,4.73a20.63,20.63 0 0 0 -32.78,3.49a28.35,28.35 0 0 0 -7,-15.94a66.32,66.32 0 0 1 -27.87,4.64a46.76,46.76 0 0 0 7.32,2.66l-0.09,0.33a46.82,46.82 0 0 1 -8.18,-3.06l-0.79,-0.38l0.88,0.06a65.26,65.26 0 0 0 28.49,-4.52c-0.34,-0.37 -0.69,-0.73 -1.05,-1.09c-11.29,0.23 -23.59,0.12 -34.72,-3.94a28.4,28.4 0 0 0 -13.48,24.19c0,5.33 1.46,12.66 4,20a83.69,83.69 0 0 0 4,9.64q1.17,2.38 2.47,4.6l0,0a54,54 0 0 0 3.45,5.17l0.69,0.87a32,32 0 0 0 4.3,4.45l0,0c0.32,0.27 0.64,0.52 1,0.76a18.94,18.94 0 0 0 2.75,1.72a12.92,12.92 0 0 0 5.2,1.41l0.43,0l0,0.05l77.09,0l0,-0.05l0.06,0a3.92,3.92 0 0 0 1.3,-0.23c2.73,-1 5.24,-4.85 7.32,-9.76c0.47,-1.09 0.91,-2.23 1.33,-3.4s0.72,-2.08 1.05,-3.15c1,-3.2 1.82,-6.49 2.43,-9.47a50.32,50.32 0 0 0 1.14,-8.83c-0.04,-0.22 -0.05,-0.44 -0.06,-0.66z"/>
  <path id="svg_38" opacity="0.1" fill="#403798" d="m890.07,338.009995a28.3,28.3 0 0 0 -34,-3.83c10.93,3.83 22.93,4 34,3.83z"/>
  <path id="svg_39" opacity="0.1" fill="#403798" d="m953.23,400.309995l-11.9,-20.61a0.38,0.38 0 0 0 -0.66,0l-11.9,20.61a0.38,0.38 0 0 0 0.33,0.57l3.55,0a0.38,0.38 0 0 1 0.38,0.38l0,4.4a0.38,0.38 0 0 0 0.38,0.38l4.59,0a0.38,0.38 0 0 0 0.38,-0.38l0,-2.12a0.38,0.38 0 0 1 0.38,-0.38l4.4,0a0.38,0.38 0 0 1 0.38,0.38l0,2.12a0.38,0.38 0 0 0 0.38,0.38l4.63,0a0.38,0.38 0 0 0 0.36,-0.26a0.37,0.37 0 0 0 0,-0.12l0,-4.4a0.38,0.38 0 0 1 0.38,-0.38l3.55,0a0.38,0.38 0 0 0 0.39,-0.57zm-16.59,2.28a0.39,0.39 0 0 1 -0.27,0.11l-1.67,0a0.38,0.38 0 0 1 -0.38,-0.38a0.35,0.35 0 0 1 0.11,-0.26a0.4,0.4 0 0 1 0.27,-0.12l1.67,0a0.38,0.38 0 0 1 0.38,0.38a0.37,0.37 0 0 1 -0.11,0.27zm10.93,0a0.37,0.37 0 0 1 -0.27,0.11l-1.67,0a0.38,0.38 0 0 1 -0.38,-0.38a0.35,0.35 0 0 1 0.11,-0.26a0.4,0.4 0 0 1 0.27,-0.12l1.67,0a0.38,0.38 0 0 1 0.38,0.38a0.37,0.37 0 0 1 -0.11,0.27z"/>
  <path id="svg_40" opacity="0.1" fill="#403798" d="m879.68,400.489995l-11.9,-20.61a0.38,0.38 0 0 0 -0.66,0l-10.27,17.8a32,32 0 0 0 4.3,4.45l1.67,0a0.38,0.38 0 1 1 0,0.75l-0.7,0a18.94,18.94 0 0 0 2.75,1.72l0,-0.88a0.38,0.38 0 0 1 0.38,-0.38l4.41,0a0.38,0.38 0 0 1 0.37,0.38l0,2.12a0.39,0.39 0 0 0 0.38,0.38l4.64,0a0.38,0.38 0 0 0 0.3,-0.15a0.35,0.35 0 0 0 0.07,-0.23l0,-4.4a0.38,0.38 0 0 1 0.38,-0.38l3.55,0a0.38,0.38 0 0 0 0.33,-0.57zm-7.86,1.75a0.35,0.35 0 0 1 0.26,-0.11l1.67,0a0.38,0.38 0 1 1 0,0.75l-1.67,0a0.38,0.38 0 0 1 -0.38,-0.38a0.37,0.37 0 0 1 0.12,-0.26zm-7.48,-7.63a0.38,0.38 0 0 1 -0.38,-0.38l0,-2.88a0.38,0.38 0 0 1 0.38,-0.38l6.23,0a0.38,0.38 0 0 1 0.38,0.38l0,2.88a0.38,0.38 0 0 1 -0.38,0.38l-6.23,0z"/>
  <path id="svg_41" opacity="0.1" fill="#403798" d="m926.72,363.469995l-14.72,0l0,-3.19a0.76,0.76 0 0 0 -0.76,-0.76l-4.34,0l0,-3.39a0.48,0.48 0 0 0 -0.47,-0.48l-5.57,0a0.48,0.48 0 0 0 -0.48,0.48l0,3.39l-5.09,0a0.76,0.76 0 0 0 -0.76,0.76l0,3.19l-14,0a0.15,0.15 0 0 0 -0.15,0.15l0,42.28a0.16,0.16 0 0 0 0.15,0.16l9.33,0a0.16,0.16 0 0 0 0.16,-0.16l0,-5.69a0.15,0.15 0 0 1 0.15,-0.15l3.94,0a0.16,0.16 0 0 1 0.16,0.15l0,5.69a0.16,0.16 0 0 0 0.15,0.16l18.44,0a0.16,0.16 0 0 0 0.16,-0.16l0,-5.69a0.15,0.15 0 0 1 0.15,-0.15l3.94,0a0.16,0.16 0 0 1 0.16,0.15l0,5.69a0.16,0.16 0 0 0 0.15,0.16l9.34,0a0.16,0.16 0 0 0 0.15,-0.16l0,-42.28a0.15,0.15 0 0 0 -0.19,-0.15zm-38.41,34.61a0.16,0.16 0 0 1 -0.16,0.16l-5.76,0a0.16,0.16 0 0 1 -0.16,-0.16l0,-2a0.16,0.16 0 0 1 0.16,-0.15l5.76,0a0.16,0.16 0 0 1 0.16,0.15l0,2zm0,-5.08a0.16,0.16 0 0 1 -0.16,0.15l-5.76,0a0.16,0.16 0 0 1 -0.16,-0.15l0,-2a0.16,0.16 0 0 1 0.16,-0.16l5.76,0a0.16,0.16 0 0 1 0.16,0.16l0,2zm0,-5.09a0.16,0.16 0 0 1 -0.16,0.16l-5.76,0a0.16,0.16 0 0 1 -0.16,-0.16l0,-2a0.16,0.16 0 0 1 0.16,-0.15l5.76,0a0.16,0.16 0 0 1 0.16,0.15l0,2zm0,-5.09a0.16,0.16 0 0 1 -0.16,0.16l-5.76,0a0.16,0.16 0 0 1 -0.16,-0.16l0,-2a0.16,0.16 0 0 1 0.16,-0.16l5.76,0a0.16,0.16 0 0 1 0.16,0.16l0,2zm0,-5.08a0.16,0.16 0 0 1 -0.16,0.15l-5.76,0a0.16,0.16 0 0 1 -0.16,-0.15l0,-2a0.16,0.16 0 0 1 0.16,-0.15l5.76,0a0.16,0.16 0 0 1 0.16,0.15l0,2zm0,-5.09a0.16,0.16 0 0 1 -0.16,0.16l-5.76,0a0.16,0.16 0 0 1 -0.16,-0.16l0,-2a0.16,0.16 0 0 1 0.16,-0.15l5.76,0a0.16,0.16 0 0 1 0.16,0.15l0,2zm0,-5.08a0.16,0.16 0 0 1 -0.16,0.15l-5.76,0a0.16,0.16 0 0 1 -0.16,-0.15l0,-2a0.16,0.16 0 0 1 0.16,-0.16l5.76,0a0.16,0.16 0 0 1 0.16,0.16l0,2zm13.69,32.51a0.16,0.16 0 0 1 -0.15,0.16l-5.77,0a0.16,0.16 0 0 1 -0.15,-0.16l0,-2a0.15,0.15 0 0 1 0.15,-0.15l5.77,0a0.15,0.15 0 0 1 0.15,0.15l0,2zm-13.69,-37.59a0.15,0.15 0 0 1 -0.15,0.15l-5.77,0a0.15,0.15 0 0 1 -0.15,-0.15l0,-2a0.16,0.16 0 0 1 0.15,-0.16l5.77,0a0.16,0.16 0 0 1 0.15,0.16l0,2zm0,-5.09a0.16,0.16 0 0 1 -0.15,0.16l-5.77,0a0.16,0.16 0 0 1 -0.15,-0.16l0,-2a0.15,0.15 0 0 1 0.15,-0.15l5.77,0a0.15,0.15 0 0 1 0.15,0.15l0,2zm0,-5.09a0.16,0.16 0 0 1 -0.15,0.16l-5.77,0a0.16,0.16 0 0 1 -0.15,-0.16l0,-2a0.16,0.16 0 0 1 0.15,-0.16l5.77,0a0.16,0.16 0 0 1 0.15,0.16l0,2zm0,-5.08a0.15,0.15 0 0 1 -0.15,0.15l-5.77,0a0.15,0.15 0 0 1 -0.15,-0.15l0,-2a0.15,0.15 0 0 1 0.15,-0.15l5.77,0a0.15,0.15 0 0 1 0.15,0.15l0,2zm0,-5.09a0.16,0.16 0 0 1 -0.15,0.16l-5.77,0a0.16,0.16 0 0 1 -0.15,-0.16l0,-2a0.15,0.15 0 0 1 0.15,-0.15l5.77,0a0.15,0.15 0 0 1 0.15,0.15l0,2zm0,-5.08a0.15,0.15 0 0 1 -0.15,0.15l-5.77,0a0.15,0.15 0 0 1 -0.15,-0.15l0,-2a0.16,0.16 0 0 1 0.15,-0.16l5.77,0a0.16,0.16 0 0 1 0.15,0.16l0,2zm9.34,30.51a0.16,0.16 0 0 1 -0.16,0.16l-5.76,0a0.16,0.16 0 0 1 -0.16,-0.16l0,-2a0.16,0.16 0 0 1 0.16,-0.15l5.76,0a0.16,0.16 0 0 1 0.16,0.15l0,2zm0,-5.08a0.16,0.16 0 0 1 -0.16,0.15l-5.76,0a0.16,0.16 0 0 1 -0.16,-0.15l0,-2a0.16,0.16 0 0 1 0.16,-0.16l5.76,0a0.16,0.16 0 0 1 0.16,0.16l0,2zm0,-5.09a0.16,0.16 0 0 1 -0.16,0.16l-5.76,0a0.16,0.16 0 0 1 -0.16,-0.16l0,-2a0.16,0.16 0 0 1 0.16,-0.15l5.76,0a0.16,0.16 0 0 1 0.16,0.15l0,2zm0,-5.09a0.16,0.16 0 0 1 -0.16,0.16l-5.76,0a0.16,0.16 0 0 1 -0.16,-0.16l0,-2a0.16,0.16 0 0 1 0.16,-0.16l5.76,0a0.16,0.16 0 0 1 0.16,0.16l0,2zm0,-5.08a0.16,0.16 0 0 1 -0.16,0.15l-5.76,0a0.16,0.16 0 0 1 -0.16,-0.15l0,-2a0.16,0.16 0 0 1 0.16,-0.15l5.76,0a0.16,0.16 0 0 1 0.16,0.15l0,2zm0,-5.09a0.16,0.16 0 0 1 -0.16,0.16l-5.76,0a0.16,0.16 0 0 1 -0.16,-0.16l0,-2a0.16,0.16 0 0 1 0.16,-0.15l5.76,0a0.16,0.16 0 0 1 0.16,0.15l0,2zm0,-5.08a0.16,0.16 0 0 1 -0.16,0.15l-5.76,0a0.16,0.16 0 0 1 -0.16,-0.15l0,-2a0.16,0.16 0 0 1 0.16,-0.16l5.76,0a0.16,0.16 0 0 1 0.16,0.16l0,2zm27.35,63.02a0.16,0.16 0 0 1 -0.15,0.16l-5.77,0a0.16,0.16 0 0 1 -0.15,-0.16l0,-2a0.15,0.15 0 0 1 0.15,-0.15l5.77,0a0.15,0.15 0 0 1 0.15,0.15l0,2zm-27.35,-68.1a0.15,0.15 0 0 1 -0.15,0.15l-5.77,0a0.15,0.15 0 0 1 -0.15,-0.15l0,-2a0.16,0.16 0 0 1 0.15,-0.16l5.77,0a0.16,0.16 0 0 1 0.15,0.16l0,2zm0,-5.09a0.16,0.16 0 0 1 -0.15,0.16l-5.77,0a0.16,0.16 0 0 1 -0.15,-0.16l0,-2a0.15,0.15 0 0 1 0.15,-0.15l5.77,0a0.15,0.15 0 0 1 0.15,0.15l0,2zm0,-5.09a0.16,0.16 0 0 1 -0.15,0.16l-5.77,0a0.16,0.16 0 0 1 -0.15,-0.16l0,-2a0.16,0.16 0 0 1 0.15,-0.16l5.77,0a0.16,0.16 0 0 1 0.15,0.16l0,2zm0,-5.08a0.15,0.15 0 0 1 -0.15,0.15l-5.77,0a0.15,0.15 0 0 1 -0.15,-0.15l0,-2a0.15,0.15 0 0 1 0.15,-0.15l5.77,0a0.15,0.15 0 0 1 0.15,0.15l0,2zm0,-5.09a0.16,0.16 0 0 1 -0.15,0.16l-5.77,0a0.16,0.16 0 0 1 -0.15,-0.16l0,-2a0.15,0.15 0 0 1 0.15,-0.15l5.77,0a0.15,0.15 0 0 1 0.15,0.15l0,2zm0,-5.08a0.15,0.15 0 0 1 -0.15,0.15l-5.77,0a0.15,0.15 0 0 1 -0.15,-0.15l0,-2a0.16,0.16 0 0 1 0.15,-0.16l5.77,0a0.16,0.16 0 0 1 0.15,0.16l0,2z"/>
  <path id="svg_42" opacity="0.1" fill="#4e73df" d="m884.77,353.009995a3.33,3.33 0 0 0 -1.92,0.21a2.82,2.82 0 0 1 -1.15,0.24a2.72,2.72 0 0 1 -1.16,-0.25a3.27,3.27 0 0 0 -2.72,0.06a1.73,1.73 0 0 1 -0.78,0.19c-1.1,0 -2,-1.11 -2.21,-2.57a2.06,2.06 0 0 0 0.55,-0.59a3.1,3.1 0 0 1 5.53,0a2.11,2.11 0 0 0 1.83,1l0,0a2.28,2.28 0 0 1 2.03,1.71z"/>
  <path id="svg_43" opacity="0.1" fill="#403798" d="m888.13,347.419995l-1.78,1.12l1.08,-2a1.75,1.75 0 0 0 -1.08,-0.39l0,0a1.51,1.51 0 0 1 -0.37,0l-0.61,0.38l0.26,-0.47a2.19,2.19 0 0 1 -1.05,-0.8l-1.08,0.68l0.68,-1.24a3.16,3.16 0 0 0 -2.42,-1.22a3.3,3.3 0 0 0 -2.76,1.73a2.09,2.09 0 0 1 -1.83,1l-0.06,0c-1.24,0 -2.25,1.41 -2.25,3.14s1,3.14 2.25,3.14a1.64,1.64 0 0 0 0.78,-0.19a3.23,3.23 0 0 1 2.72,0a2.9,2.9 0 0 0 2.31,0a3.24,3.24 0 0 1 2.69,0a1.6,1.6 0 0 0 0.77,0.19c1.24,0 2.25,-1.4 2.25,-3.14a4,4 0 0 0 -0.5,-1.93z"/>
  <path id="svg_44" fill="#3f3d56" d="m99.65,540.599995a37,37 0 0 1 -0.8,7.76c-0.1,0.48 -0.21,0.95 -0.32,1.41c-2.84,11.39 -10.85,19.72 -20.41,20.25c-0.32,0 -0.64,0 -1,0c-10.11,0 -18.66,-8.72 -21.48,-20.73c-0.08,-0.32 -0.15,-0.64 -0.22,-1a37,37 0 0 1 -0.8,-7.76c0,-16.27 10.07,-29.45 22.5,-29.45s22.53,13.25 22.53,29.52z"/>
  <path id="svg_45" opacity="0.1" d="m99.65,540.599995a37,37 0 0 1 -0.8,7.76c-0.1,0.48 -0.21,0.95 -0.32,1.41c-0.34,0 -0.67,0 -1,0a45.76,45.76 0 0 1 -7.36,-1a44.92,44.92 0 0 1 -6.56,1.5a45.87,45.87 0 0 1 -5.14,0.48l-1.74,0a46.41,46.41 0 0 1 -6.16,-0.41a45.17,45.17 0 0 1 -9.67,-2.4a45.56,45.56 0 0 1 -5.22,1.4c-0.08,-0.32 -0.15,-0.64 -0.22,-1a37,37 0 0 1 -0.8,-7.76c0,-16.27 10.07,-29.45 22.5,-29.45s22.49,13.2 22.49,29.47z"/>
  <path id="svg_46" fill="#403798" d="m147.65,485.729995a45.6,45.6 0 0 0 -4.9,-20.61l-26.46,8.23l23.23,-13.65a45.71,45.71 0 0 0 -34.36,-19.59a45.65,45.65 0 0 0 -3.57,-4.72l-38,11.83l31.17,-18.33a45.73,45.73 0 0 0 -72,24.39l32.55,37.47l-35.31,-25.54a45.74,45.74 0 0 0 40.93,80.7a45.92,45.92 0 0 0 29.28,0.81a45.74,45.74 0 0 0 55.62,-44.66c0,-1 0,-2 -0.1,-3a45.74,45.74 0 0 0 1.92,-13.33z"/>
  <path id="svg_47" opacity="0.1" d="m146.86,494.209995a122.14,122.14 0 0 0 -42.34,-0.54c-15.89,2.63 -32.13,8.42 -47.67,4.19c-9.12,-2.48 -17,-8.22 -25.91,-11.41a49.18,49.18 0 0 0 -26.75,-1.6a45.76,45.76 0 0 0 56.69,61.06a45.92,45.92 0 0 0 29.28,0.81a45.74,45.74 0 0 0 55.62,-44.66c0,-1 0,-2 -0.1,-3a46,46 0 0 0 1.18,-4.85z"/>
  <path id="svg_48" fill="#393859" d="m493.71,206.139995l-19,-0.84c-4.35,-0.19 -9.31,-0.13 -12.21,3.11c-3.09,3.45 -2.28,8.87 -0.46,13.14s4.48,8.36 4.62,13c0.21,7.3 -5.78,13.08 -11.21,18s-11.23,11 -10.44,18.27c0.62,5.67 5.14,10.05 9.6,13.59a128.25,128.25 0 0 0 21.85,14c4.43,2.24 9.15,4.26 14.12,4.31c4.36,0.05 8.58,-1.42 12.68,-2.9c7.13,-2.56 14.45,-5.33 19.86,-10.62a39.92,39.92 0 0 0 6.9,-9.54c9.35,-17 11.84,-38.26 4.24,-56.13a31.55,31.55 0 0 0 -7,-10.66c-8.1,-7.67 -20.46,-8 -31.62,-7.91a12.39,12.39 0 0 0 -5.92,1.05c-1.77,1 -3,3.23 -2.18,5.08"/>
  <path id="svg_49" fill="#a0616a" d="m469.39,441.379995a411.28,411.28 0 0 0 2.24,60.27c0.26,2.29 0.53,4.58 1,6.84c1.28,7 3.9,13.71 5.95,20.54s3.57,14 2.56,21.07q6.6,-0.69 13.22,-1.13l0.06,-3.4c0.12,-6.52 -2.44,-12.88 -1.79,-19.37c0.62,-6.14 2.6,-12.14 2.51,-18.31c-0.09,-5.83 -2,-11.45 -2.91,-17.21a97.73,97.73 0 0 1 -0.82,-11.6a146.49,146.49 0 0 1 0.1,-16c0.84,-10.82 4.06,-21.6 2.57,-32.35c-8.16,3.76 -16.58,6.93 -24.69,10.65z"/>
  <path id="svg_50" fill="#3f3d56" d="m489.36,573.399995a3,3 0 0 0 1.47,-0.24a3.2,3.2 0 0 0 1.17,-2.15a26.23,26.23 0 0 1 3.36,-7.55c1.13,-1.73 2.51,-3.49 2.53,-5.55c0,-3.33 -3.48,-5.66 -4.21,-8.91a14.38,14.38 0 0 0 -0.62,-3.08c-0.82,-1.75 -3,-2.35 -4.88,-2.74c-2.56,-0.54 -5.87,-0.76 -7.14,1.52c-1.08,1.94 0.12,4.3 0.28,6.51c0.2,3 -1.58,5.76 -3.5,8.07c-2.25,2.72 -8.16,9.23 -4.56,13c1.35,1.42 4.29,0.94 6,1l10.1,0.12z"/>
  <path id="svg_51" fill="#a0616a" d="m528,441.379995a409.91,409.91 0 0 1 -2.25,60.27c-0.25,2.29 -0.52,4.58 -0.94,6.84c-1.28,7 -3.9,13.71 -6,20.54s-3.56,14 -2.55,21.07q-6.6,-0.69 -13.22,-1.13l-0.06,-3.4c-0.12,-6.52 2.43,-12.88 1.78,-19.37c-0.61,-6.14 -2.59,-12.14 -2.5,-18.31c0.09,-5.83 2,-11.45 2.9,-17.21a95.67,95.67 0 0 0 0.83,-11.6a146.49,146.49 0 0 0 -0.1,-16c-0.84,-10.82 -4.07,-21.6 -2.57,-32.35c8.19,3.76 16.6,6.93 24.68,10.65z"/>
  <path id="svg_52" fill="#3f3d56" d="m508.06,573.399995a3,3 0 0 1 -1.46,-0.24a3.2,3.2 0 0 1 -1.21,-2.15a26.23,26.23 0 0 0 -3.36,-7.55c-1.13,-1.73 -2.52,-3.49 -2.53,-5.55c0,-3.33 3.48,-5.66 4.2,-8.91a14.39,14.39 0 0 1 0.63,-3.08c0.82,-1.75 3,-2.35 4.88,-2.74c2.56,-0.54 5.86,-0.76 7.14,1.52c1.08,1.94 -0.13,4.3 -0.28,6.51c-0.21,3 1.58,5.76 3.5,8.07c2.25,2.72 8.16,9.23 4.56,13c-1.35,1.42 -4.29,0.94 -6,1l-10.07,0.12z"/>
  <circle id="svg_53" fill="#a0616a" r="20.49" cy="243.59" cx="492.31"/>
  <path id="svg_54" fill="#a0616a" d="m480.7,262.059995a7,7 0 0 1 0.3,2.95a5.74,5.74 0 0 1 -1.72,2.66a30.58,30.58 0 0 1 -10.15,6.77c-0.4,1.29 0.35,2.62 1.08,3.74c2.46,3.79 5.06,7.47 7.67,11.16a74.72,74.72 0 0 0 17.43,18.77l6,-7.54a48.75,48.75 0 0 0 3.48,-4.73a47.18,47.18 0 0 0 3.12,-6.39l7.33,-17c-4.41,0.89 -8.89,-1.14 -12.66,-3.61a4.94,4.94 0 0 1 -1.84,-1.76a5,5 0 0 1 -0.4,-2.18q-0.18,-5.3 -0.15,-10.59a136.14,136.14 0 0 0 -16,-1.25c-2.08,0 -3.48,-0.44 -4,1.76s0.06,5.11 0.51,7.24z"/>
  <path id="svg_55" fill="#ff6f61" d="m489.8,300.619995a78.77,78.77 0 0 0 -12,-16a10.8,10.8 0 0 1 -2.51,-3.29a10,10 0 0 1 -0.56,-3.18l-0.36,-5.29a1.23,1.23 0 0 0 -0.27,-0.82a1.19,1.19 0 0 0 -0.81,-0.23a6.77,6.77 0 0 0 -3.71,0.54a10.4,10.4 0 0 0 -2,1.84c-2.29,2.35 -5.51,3.46 -8.53,4.73a68.63,68.63 0 0 0 -6.58,3.17c-1.69,0.93 -3.43,2 -4.19,3.8a9.39,9.39 0 0 0 -0.54,3.58l-0.74,42.54a2.25,2.25 0 0 1 -1.68,2.51a6.1,6.1 0 0 0 -2.32,1.77a2.4,2.4 0 0 0 -0.09,2.75c0.3,0.39 0.76,0.63 1.07,1c1,1.19 0.13,2.91 -0.54,4.29a9.32,9.32 0 0 0 -1,5.81a5,5 0 0 0 3.92,4c0.79,-2.55 -1,-5.44 0,-7.91a5.67,5.67 0 0 1 3.42,-2.85a12.29,12.29 0 0 1 6.24,-0.68l1.2,4.37c4.31,15.74 1.32,32.65 -2.61,48.49c-0.91,3.7 -2.06,7.34 -2.74,11.09c-1,5.63 -1,11.38 -1,17.1l0,15.64c0,1.9 0.12,4.05 1.57,5.28s4.12,1.14 5.21,2.84c0.63,1 0.51,2.29 1.08,3.31a4.38,4.38 0 0 0 1.7,1.55a11.44,11.44 0 0 0 14.91,-3.66c1.08,-1.71 1.73,-3.78 3.33,-5c1.83,-1.43 4.37,-1.39 6.68,-1.28l13.62,0.65a28.19,28.19 0 0 1 6.92,0.91a53.46,53.46 0 0 1 5.88,2.54a30.29,30.29 0 0 0 13.77,2.5a8,8 0 0 0 3.72,-0.9c1.3,-0.78 2.2,-2.2 3.63,-2.73c1.61,-0.6 3.68,0 4.93,-1.17a4.47,4.47 0 0 0 1,-3.17l0.57,-13.37c0.6,-13.79 1.13,-28 -3.42,-41c-1.11,-3.17 -2.51,-6.24 -3.36,-9.49a93.86,93.86 0 0 1 -1.61,-10.19c-1.41,-9.51 -4.62,-18.87 -4,-28.46c0,-0.73 0.64,-0.9 1.36,-1c2.54,-0.25 5.31,0.22 7.12,2c1.61,1.6 2.18,4 2.36,6.23a7,7 0 0 1 -0.86,4.68l3.76,-2.76c1.2,-0.88 2.54,-2.09 2.3,-3.56c-0.71,-4.37 -0.47,-9.26 -1,-13.65a199.36,199.36 0 0 0 -3.59,-22.16a58.25,58.25 0 0 1 -1.45,-6.32c-0.36,-2.92 -0.16,-5.87 -0.35,-8.81a33.18,33.18 0 0 0 -3.14,-12a12.26,12.26 0 0 0 -2,-3.18a13.94,13.94 0 0 0 -3.88,-2.68a79.93,79.93 0 0 0 -19.63,-7.13c-1.35,-0.29 -2.9,-0.51 -4,0.33c-1.4,1.08 -1.24,3.25 -0.62,4.91s1.57,3.33 1.3,5.08s-1.76,3.13 -3,4.52c-3.17,3.71 -4.61,8.71 -8,12.25c-1.45,1.63 -3.55,3.08 -3.88,5.32z"/>
  <path id="svg_56" fill="#393859" d="m477.07,233.469995c1.73,1.44 3.18,3.44 5.38,3.91c5.3,1.12 9.44,-7.45 14.54,-5.62c1.86,0.67 3,2.52 4.43,3.82a8.77,8.77 0 0 0 12,-0.87c2.68,-3.13 2.71,-7.65 2.61,-11.77a8.85,8.85 0 0 0 -0.89,-4.42a7.12,7.12 0 0 0 -1.77,-1.86c-6.05,-4.73 -14.22,-5.41 -21.88,-5.9a16,16 0 0 0 -5,0.21c-2.28,0.58 -4.16,2.12 -6,3.62c-3.44,2.86 -11.81,8.3 -12.86,12.91s6.04,3.15 9.44,5.97z"/>
  <rect id="svg_57" fill="#403798" rx="2.61" height="80.43" width="74.28" y="295.07" x="453.12"/>
  <rect id="svg_58" fill="#fff" rx="2.61" height="48.65" width="61.48" y="302.01" x="459.52"/>
  <path id="svg_59" opacity="0.3" fill="#403798" d="m513,326.469995l0,0a5.8,5.8 0 0 0 -0.27,-1.46l0,-0.07a5.53,5.53 0 0 0 -9.36,-1.9a7.35,7.35 0 0 0 -0.44,-1.54a24.69,24.69 0 0 1 -4.38,0.16a16.21,16.21 0 0 0 2.78,1l0,0.13a18.07,18.07 0 0 1 -3.1,-1.16l-0.3,-0.15l0.33,0a24.17,24.17 0 0 0 4.66,-0.13a7.72,7.72 0 0 0 -1.37,-2.18a23.49,23.49 0 0 1 -7.32,-1.82l0.06,-0.12a23.14,23.14 0 0 0 7.13,1.79a7.83,7.83 0 0 0 -12.45,1.33a10.74,10.74 0 0 0 -2.67,-6.05a25.14,25.14 0 0 1 -10.58,1.76a18.48,18.48 0 0 0 2.78,1l0,0.12a18.07,18.07 0 0 1 -3.1,-1.16l-0.3,-0.14l0.33,0a24.79,24.79 0 0 0 10.82,-1.72c-0.13,-0.14 -0.26,-0.28 -0.4,-0.41c-4.29,0.09 -8.95,0 -13.18,-1.5a10.8,10.8 0 0 0 -5.12,9.19a25.33,25.33 0 0 0 1.52,7.6a32.44,32.44 0 0 0 1.52,3.66c0.3,0.6 0.61,1.18 0.94,1.74l0,0a20.87,20.87 0 0 0 1.31,2l0.26,0.33a11.48,11.48 0 0 0 1.64,1.69l0,0a4.57,4.57 0 0 0 0.36,0.29a7.58,7.58 0 0 0 1.05,0.66a4.87,4.87 0 0 0 2,0.53l0.17,0l0,0l29.27,0l0,0l0,0a1.62,1.62 0 0 0 0.49,-0.08c1,-0.37 2,-1.85 2.79,-3.71c0.17,-0.41 0.34,-0.84 0.5,-1.29s0.27,-0.79 0.4,-1.19c0.38,-1.22 0.69,-2.47 0.92,-3.6a18.77,18.77 0 0 0 0.43,-3.35l-0.12,-0.25z"/>
  <path id="svg_60" opacity="0.3" fill="#403798" d="m485.65,314.659995a10.72,10.72 0 0 0 -12.91,-1.45c4.14,1.48 8.7,1.53 12.91,1.45z"/>
  <path id="svg_61" opacity="0.3" fill="#403798" d="m509.63,337.709995l-4.52,-7.82a0.14,0.14 0 0 0 -0.25,0l-4.52,7.82a0.15,0.15 0 0 0 0.13,0.22l1.35,0a0.14,0.14 0 0 1 0.14,0.14l0,1.68a0.14,0.14 0 0 0 0.14,0.14l1.76,0a0.15,0.15 0 0 0 0.15,-0.14l0,-0.81a0.15,0.15 0 0 1 0.14,-0.15l1.67,0a0.15,0.15 0 0 1 0.15,0.15l0,0.81a0.14,0.14 0 0 0 0.14,0.14l1.76,0a0.13,0.13 0 0 0 0.13,-0.1a0.06,0.06 0 0 0 0,0l0,-1.68a0.15,0.15 0 0 1 0.15,-0.14l1.34,0a0.15,0.15 0 0 0 0.14,-0.26zm-6.3,0.87a0.13,0.13 0 0 1 -0.1,0l-0.64,0a0.14,0.14 0 0 1 -0.14,-0.14a0.15,0.15 0 0 1 0,-0.1a0.14,0.14 0 0 1 0.1,-0.05l0.64,0a0.15,0.15 0 0 1 0.14,0.15a0.13,0.13 0 0 1 0,0.14zm4.15,0a0.13,0.13 0 0 1 -0.1,0l-0.64,0a0.14,0.14 0 0 1 -0.14,-0.14a0.15,0.15 0 0 1 0,-0.1a0.14,0.14 0 0 1 0.1,-0.05l0.64,0a0.15,0.15 0 0 1 0.14,0.15a0.13,0.13 0 0 1 0,0.14z"/>
  <path id="svg_62" opacity="0.3" fill="#403798" d="m481.7,337.779995l-4.51,-7.77a0.14,0.14 0 0 0 -0.25,0l-3.94,6.71a11.91,11.91 0 0 0 1.64,1.68l0.63,0a0.15,0.15 0 0 1 0.15,0.15a0.14,0.14 0 0 1 -0.05,0.1a0.15,0.15 0 0 1 -0.1,0l-0.27,0a8.55,8.55 0 0 0 1.05,0.65l0,-0.29a0.15,0.15 0 0 1 0.14,-0.15l1.68,0a0.15,0.15 0 0 1 0.14,0.15l0,0.8a0.35,0.35 0 0 0 0,0.06a0.17,0.17 0 0 0 0.13,0.09l1.76,0a0.14,0.14 0 0 0 0.12,-0.06a0.12,0.12 0 0 0 0,-0.09l0,-1.67a0.14,0.14 0 0 1 0.14,-0.14l1.35,0a0.14,0.14 0 0 0 0.19,-0.22zm-3,0.66a0.15,0.15 0 0 1 0.1,0l0.63,0a0.15,0.15 0 0 1 0.15,0.15a0.14,0.14 0 0 1 -0.05,0.1a0.15,0.15 0 0 1 -0.1,0l-0.63,0a0.15,0.15 0 0 1 -0.15,-0.14a0.16,0.16 0 0 1 0.07,-0.11l-0.02,0zm-2.84,-2.89a0.15,0.15 0 0 1 -0.15,-0.15l0,-1.09a0.15,0.15 0 0 1 0.15,-0.14l2.36,0a0.15,0.15 0 0 1 0.15,0.14l0,1.09a0.15,0.15 0 0 1 -0.15,0.15l-2.36,0z"/>
  <path id="svg_63" opacity="0.3" fill="#403798" d="m499.56,323.719995l-5.56,0l0,-1.2a0.29,0.29 0 0 0 -0.29,-0.29l-1.71,0l0,-1.29a0.18,0.18 0 0 0 -0.18,-0.18l-2.12,0a0.18,0.18 0 0 0 -0.18,0.18l0,1.29l-1.93,0a0.29,0.29 0 0 0 -0.29,0.29l0,1.2l-5.3,0a0.06,0.06 0 0 0 -0.06,0.06l0,16.06a0.06,0.06 0 0 0 0.06,0.05l3.54,0s0.06,0 0.06,-0.05l0,-2.16a0.06,0.06 0 0 1 0.06,-0.06l1.5,0a0.06,0.06 0 0 1 0.06,0.06l0,2.16s0,0.05 0.06,0.05l7,0a0.06,0.06 0 0 0 0.06,-0.05l0,-2.16s0,-0.06 0,-0.06l1.5,0a0.06,0.06 0 0 1 0.06,0.06l0,2.16a0.06,0.06 0 0 0 0.06,0.05l3.54,0a0.06,0.06 0 0 0 0.06,-0.05l0,-16.06a0.06,0.06 0 0 0 0,-0.06zm-14.56,13.15a0.06,0.06 0 0 1 -0.06,0.06l-2.19,0a0.06,0.06 0 0 1 -0.06,-0.06l0,-0.75a0.06,0.06 0 0 1 0.06,-0.06l2.19,0a0.06,0.06 0 0 1 0.06,0.06l0,0.75zm0,-2.68a0.06,0.06 0 0 1 -0.06,0.06l-2.19,0a0.06,0.06 0 0 1 -0.06,-0.06l0,-0.75a0.06,0.06 0 0 1 0.06,-0.06l2.19,0a0.06,0.06 0 0 1 0.06,0.06l0,0.75zm0,-1.93a0.06,0.06 0 0 1 -0.06,0.05l-2.19,0a0.06,0.06 0 0 1 -0.06,-0.05l0,-0.75a0.06,0.06 0 0 1 0.06,-0.06l2.19,0a0.06,0.06 0 0 1 0.06,0.06l0,0.75zm0,-1.94a0.06,0.06 0 0 1 -0.06,0.06l-2.19,0a0.06,0.06 0 0 1 -0.06,-0.06l0,-0.74a0.06,0.06 0 0 1 0.06,-0.06l2.19,0a0.06,0.06 0 0 1 0.06,0.06l0,0.74zm0,-1.93a0.06,0.06 0 0 1 -0.06,0.06l-2.19,0a0.06,0.06 0 0 1 -0.06,-0.06l0,-0.74a0.06,0.06 0 0 1 0.06,-0.06l2.19,0a0.06,0.06 0 0 1 0.06,0.06l0,0.74zm0,-1.93a0.06,0.06 0 0 1 -0.06,0.06l-2.19,0a0.06,0.06 0 0 1 -0.06,-0.06l0,-0.75a0.06,0.06 0 0 1 0.06,-0.05l2.19,0a0.06,0.06 0 0 1 0.06,0.05l0,0.75zm0,-1.93a0.06,0.06 0 0 1 -0.06,0.06l-2.19,0a0.06,0.06 0 0 1 -0.06,-0.06l0,-0.75a0.06,0.06 0 0 1 0.06,-0.06l2.19,0a0.06,0.06 0 0 1 0.06,0.06l0,0.75zm5.19,11.59a0.06,0.06 0 0 1 -0.06,0.06l-2.19,0a0.06,0.06 0 0 1 -0.06,-0.06l0,-0.75a0.06,0.06 0 0 1 0.06,-0.06l2.19,0a0.06,0.06 0 0 1 0.06,0.06l0,0.75zm0,-1.93a0.06,0.06 0 0 1 -0.06,0.06l-2.19,0a0.06,0.06 0 0 1 -0.06,-0.06l0,-0.75a0.06,0.06 0 0 1 0.06,-0.06l2.19,0a0.06,0.06 0 0 1 0.06,0.06l0,0.75zm0,-1.93a0.06,0.06 0 0 1 -0.06,0.05l-2.19,0a0.06,0.06 0 0 1 -0.06,-0.05l0,-0.75a0.06,0.06 0 0 1 0.06,-0.06l2.19,0a0.06,0.06 0 0 1 0.06,0.06l0,0.75zm0,-1.94a0.06,0.06 0 0 1 -0.06,0.06l-2.19,0a0.06,0.06 0 0 1 -0.06,-0.06l0,-0.74a0.06,0.06 0 0 1 0.06,-0.06l2.19,0a0.06,0.06 0 0 1 0.06,0.06l0,0.74zm0,-1.93a0.06,0.06 0 0 1 -0.06,0.06l-2.19,0a0.06,0.06 0 0 1 -0.06,-0.06l0,-0.74a0.06,0.06 0 0 1 0.06,-0.06l2.19,0a0.06,0.06 0 0 1 0.06,0.06l0,0.74zm0,-1.93a0.06,0.06 0 0 1 -0.06,0.06l-2.19,0a0.06,0.06 0 0 1 -0.06,-0.06l0,-0.75a0.06,0.06 0 0 1 0.06,-0.05l2.19,0a0.06,0.06 0 0 1 0.06,0.05l0,0.75zm0,-1.93a0.06,0.06 0 0 1 -0.06,0.06l-2.19,0a0.06,0.06 0 0 1 -0.06,-0.06l0,-0.75a0.06,0.06 0 0 1 0.06,-0.06l2.19,0a0.06,0.06 0 0 1 0.06,0.06l0,0.75zm3.54,11.59a0.06,0.06 0 0 1 -0.06,0.06l-2.19,0a0.06,0.06 0 0 1 -0.05,-0.06l0,-0.75a0.06,0.06 0 0 1 0.05,-0.06l2.19,0a0.06,0.06 0 0 1 0.06,0.06l0,0.75zm0,-1.93a0.06,0.06 0 0 1 -0.06,0.06l-2.19,0a0.06,0.06 0 0 1 -0.05,-0.06l0,-0.75a0.06,0.06 0 0 1 0.05,-0.06l2.19,0a0.06,0.06 0 0 1 0.06,0.06l0,0.75zm0,-1.93s0,0.05 -0.06,0.05l-2.19,0a0,0 0 0 1 -0.05,-0.05l0,-0.75a0.06,0.06 0 0 1 0.05,-0.06l2.19,0a0.06,0.06 0 0 1 0.06,0.06l0,0.75zm0,-1.94a0.05,0.05 0 0 1 -0.06,0.06l-2.19,0s-0.05,0 -0.05,-0.06l0,-0.74s0,-0.06 0.05,-0.06l2.19,0a0.05,0.05 0 0 1 0.06,0.06l0,0.74zm0,-1.93a0.05,0.05 0 0 1 -0.06,0.06l-2.19,0s-0.05,0 -0.05,-0.06l0,-0.74s0,-0.06 0.05,-0.06l2.19,0a0.05,0.05 0 0 1 0.06,0.06l0,0.74zm0,-1.93a0.06,0.06 0 0 1 -0.06,0.06l-2.19,0a0.06,0.06 0 0 1 -0.05,-0.06l0,-0.75a0,0 0 0 1 0.05,-0.05l2.19,0s0.06,0 0.06,0.05l0,0.75zm0,-1.93a0.06,0.06 0 0 1 -0.06,0.06l-2.19,0a0.06,0.06 0 0 1 -0.05,-0.06l0,-0.75a0.06,0.06 0 0 1 0.05,-0.06l2.19,0a0.06,0.06 0 0 1 0.06,0.06l0,0.75zm5.19,11.59a0.06,0.06 0 0 1 -0.06,0.06l-2.19,0a0.06,0.06 0 0 1 -0.06,-0.06l0,-0.75a0.06,0.06 0 0 1 0.06,-0.06l2.19,0a0.06,0.06 0 0 1 0.06,0.06l0,0.75zm0,-1.93a0.06,0.06 0 0 1 -0.06,0.06l-2.19,0a0.06,0.06 0 0 1 -0.06,-0.06l0,-0.75a0.06,0.06 0 0 1 0.06,-0.06l2.19,0a0.06,0.06 0 0 1 0.06,0.06l0,0.75zm0,-1.93a0.06,0.06 0 0 1 -0.06,0.05l-2.19,0a0.06,0.06 0 0 1 -0.06,-0.05l0,-0.75a0.06,0.06 0 0 1 0.06,-0.06l2.19,0a0.06,0.06 0 0 1 0.06,0.06l0,0.75zm0,-1.94a0.06,0.06 0 0 1 -0.06,0.06l-2.19,0a0.06,0.06 0 0 1 -0.06,-0.06l0,-0.74a0.06,0.06 0 0 1 0.06,-0.06l2.19,0a0.06,0.06 0 0 1 0.06,0.06l0,0.74zm0,-1.93a0.06,0.06 0 0 1 -0.06,0.06l-2.19,0a0.06,0.06 0 0 1 -0.06,-0.06l0,-0.74a0.06,0.06 0 0 1 0.06,-0.06l2.19,0a0.06,0.06 0 0 1 0.06,0.06l0,0.74zm0,-1.93a0.06,0.06 0 0 1 -0.06,0.06l-2.19,0a0.06,0.06 0 0 1 -0.06,-0.06l0,-0.75a0.06,0.06 0 0 1 0.06,-0.05l2.19,0a0.06,0.06 0 0 1 0.06,0.05l0,0.75zm0,-1.93a0.06,0.06 0 0 1 -0.06,0.06l-2.19,0a0.06,0.06 0 0 1 -0.06,-0.06l0,-0.75a0.06,0.06 0 0 1 0.06,-0.06l2.19,0a0.06,0.06 0 0 1 0.06,0.06l0,0.75z"/>
  <path id="svg_64" opacity="0.1" fill="#4e73df" d="m483.64,320.369995a1.38,1.38 0 0 0 -0.73,0.08a1,1 0 0 1 -0.88,0a1.23,1.23 0 0 0 -1,0a0.61,0.61 0 0 1 -0.3,0.08c-0.42,0 -0.77,-0.43 -0.84,-1a0.77,0.77 0 0 0 0.21,-0.23a1.28,1.28 0 0 1 1,-0.65a1.27,1.27 0 0 1 1,0.65a0.81,0.81 0 0 0 0.69,0.38l0,0a0.87,0.87 0 0 1 0.85,0.69z"/>
  <path id="svg_65" opacity="0.1" fill="#403798" d="m484.91,318.629995l-0.67,0.43l0.41,-0.75a0.7,0.7 0 0 0 -0.41,-0.14l-0.15,0l-0.23,0.14l0.09,-0.18a0.79,0.79 0 0 1 -0.4,-0.3l-0.41,0.26l0.26,-0.47a1.2,1.2 0 0 0 -0.92,-0.47a1.28,1.28 0 0 0 -1.05,0.65a0.79,0.79 0 0 1 -0.69,0.38l0,0c-0.47,0 -0.85,0.53 -0.85,1.19s0.38,1.19 0.85,1.19a0.73,0.73 0 0 0 0.3,-0.07a1.2,1.2 0 0 1 1,0a1.12,1.12 0 0 0 0.44,0.09a1.08,1.08 0 0 0 0.44,-0.09a1.21,1.21 0 0 1 1,0a0.73,0.73 0 0 0 0.3,0.07c0.47,0 0.85,-0.53 0.85,-1.19a1.52,1.52 0 0 0 -0.16,-0.74z"/>
  <ellipse id="svg_66" fill="#a0616a" ry="10.25" rx="6.15" cy="350.66" cx="450.81"/>
  <ellipse id="svg_67" fill="#a0616a" ry="10.25" rx="6.15" cy="345.53" cx="531.76"/>
 </g>
</svg>